<svg xmlns="http://www.w3.org/2000/svg" viewBox="0 0 66.28 38.96"><path d="M32.72,24.06a7.52,7.52,0,0,0,4.26-3,2.87,2.87,0,0,0,.18,1c.62,1.55,2.78,1.33,4.19.31a13.5,13.5,0,0,0,3.52-4.09c.64-1,1.56-2.42,2.34-3.78a3.54,3.54,0,0,0,2.36-.45C47.19,17,46,18.7,46,20.33a1.74,1.74,0,0,0,2.22,1.82,7.62,7.62,0,0,0,4-3.14v.24c-.1,2.58,2.33,3.21,4.31,1.93a16.56,16.56,0,0,0,4.07-3.95c2.82-3.73,4.7-2.61,4.16.23-.72,3.75-3.39,9.05-16.3,9.54-13.25.52-25.65,1.37-33.73,6.59,7.73-1.42,13.5,2.9,15,5.37,5.67-8,12.55-4.64,25.54-9.11,11.87-4.08,12.54-15,9.47-16.17-1.15-.43-2.68-.29-5.46,3.2a6.07,6.07,0,0,1-2.94,2.19c-.69.17-.72-.4-.7-.8a8.8,8.8,0,0,1,1.17-3.51c6.5-3.41,8.63-7.59,8.72-10.07a1.24,1.24,0,0,0-1.13-1.35,1.08,1.08,0,0,0-.31,0,4.26,4.26,0,0,0-1.46.52c-2.42,1.42-5,4.53-6.81,7.53a30.82,30.82,0,0,0-3.15,5.7v.06a9.51,9.51,0,0,1-2.31,2.07c-.67.34-1,.26-1-.33A6.89,6.89,0,0,1,50,16.48a15,15,0,0,1,2.75-3.68,6.07,6.07,0,0,1-1.38-1c-1.7,1.19-3,1.33-3.33,1.19a4.68,4.68,0,0,0,.6-1.74c0-.54-.14-.93-.67-1.09a2,2,0,0,0-2.29,1.48A2.25,2.25,0,0,0,46.17,14a40.86,40.86,0,0,1-2.38,3.7,8.29,8.29,0,0,1-2.93,2.88c-.36.17-.73.19-.79-.27-.14-.71.53-1.73,1.41-3.51.62-1.24,1.45-2.81,1.84-3.57-1.25.06-2.1.11-3,.22-.12.23-.52,1-.65,1.19a2.75,2.75,0,0,0-2.56-.85c-2.53.3-4.11,1.87-5.54,3.76A9.9,9.9,0,0,0,30.09,21a9.24,9.24,0,0,1-4.71,2.53c-.7.09-1.46.13-1.87-.69a2,2,0,0,1-.11-1.11c5.07-.8,7.45-3.91,6.89-5.94-.24-.87-1.17-1.21-2.43-1.06a9.94,9.94,0,0,0-7.12,5.12c-.16.33-.3.67-.43,1-.91.06-2-.07-2.36-.5-.3.68,0,1.77,1.4,2l.69.09c0,2,1.61,3.54,4.41,3.1a12.56,12.56,0,0,0,5.57-3,2.07,2.07,0,0,0,2.69,1.59m-3.9-7.48c.15,1.15-2.23,3-5,3.61.2-1.66,2.48-3.89,4-4.15.58-.1,1,.14,1,.54m31.33-8a21.21,21.21,0,0,1,2.24-2.86C63,5,64,5,63.45,6.51a12.28,12.28,0,0,1-5.66,6.29,38.57,38.57,0,0,1,2.36-4.27M37.84,18.07c-.6,1.14-2.15,3.4-3.5,3.62-.55.09-.85-.17-1-.9-.28-1.53,2.13-5.06,4-5.39,1.31-.23,1.59,1.36-.07,1.87a.77.77,0,0,0,.59.75l0,.06ZM25.44,5.42c1.25,3.41-1.17,7.72-5.22,8.89a15.46,15.46,0,0,1-2.44.37l.53-1.3A34.47,34.47,0,0,1,24.56,4a4.73,4.73,0,0,1,.88,1.4m-.61-4.29a21.53,21.53,0,0,0-9.33-1c-9.19,1-13.76,6.1-13.43,9.35a3.69,3.69,0,0,0,4.14,3.18,9.75,9.75,0,0,0,7-4.56l-.43-.47a5.26,5.26,0,0,1-1.59.79,2.16,2.16,0,0,1-2.8-1.24A1.72,1.72,0,0,1,8.35,7c-.62-2.51,3-5.21,7.6-5.56a13.36,13.36,0,0,1,6.56,1,5.23,5.23,0,0,1,1,.66c-4.3,3.05-6.81,7.25-9,11.13-1.25-.66-1.39-1.79-.91-2.37-.52,0-2,.33-2.16,1.72-.12,1.12.54,2.06,2,2.55-.91,1.66-2.44,5.41-5.57,6.22a2.07,2.07,0,0,1-2.2-1A1.58,1.58,0,0,1,6.9,19.11c-5.28-2-9,3.95-5.57,7.55A6.38,6.38,0,0,0,7.54,28.2c5.21-1.09,7.5-6.43,9.54-11.75a12.25,12.25,0,0,0,2.26-.28c5.44-1,11.13-5.69,9.75-10.8a5.7,5.7,0,0,0-2.21-3.18,9,9,0,0,1,1.37-.65,5,5,0,0,0-.4-.8,14.39,14.39,0,0,0-2,.85,7.41,7.41,0,0,0-1.09-.46"  fill="#FAF8EB"/></svg>