<?xml version="1.0" encoding="UTF-8"?> <svg xmlns="http://www.w3.org/2000/svg" viewBox="0 0 501.88 330.78"><defs><style>.cls-1{fill:none;stroke:#fff;stroke-linejoin:round;stroke-width:1.5px;}.cls-2{fill:#fff;}</style></defs><title>Stinson White</title><g id="Layer_2" data-name="Layer 2"><g id="SSF_100yrs_LOGO_final" data-name="SSF 100yrs LOGO final"><path class="cls-1" d="M501.13,190.51c-5.6-15-24.52-19.18-40.18-22.82a243.06,243.06,0,0,0-43.12-5.62,74.84,74.84,0,0,0-20.36-49.65c-12.1-12.8-27.55-21.51-48.81-24.25V67.75c-6.49-.74-14.36-.1-21.38-.32C320.13,28.64,296.81,6,256.13.75h-9.89c-40.67,5.28-63.9,28-71.15,66.68H154c-.74,6.28-.1,13.93-.32,20.74C113.4,94.86,90,118.43,84.48,160v8.51c-28.61,4.3-57.25,9.27-83.73,12.15C4.23,193.71,21.11,197.54,35,201.18c18.47,4.82,40.41,7.18,63.25,7.73,11.75,17.53,30.3,28.26,55.42,32.41v19.46c-.86.58-2.18-.5-2.87-1-7.54-4.94-14.33-11.72-20.42-17.54-.41,4.61,4,7.46,6.7,9.89,9.09,8.08,19.66,14.42,30.63,20.1-4.4,1.34-8.07-1.68-11.17-3.51a144.47,144.47,0,0,1-26.16-20.1v16c-5.19.55-10.52,1-15.95,1.28,6.2,7,15.88,14.34,24.25,19.78,1,.66,3.56,1.26,2.87,3.19-1.62,1.22-3.12-.91-4.15-1.6A180.68,180.68,0,0,1,117.34,272c-2.37-2.12-4.83-5.73-8.3-5.43-.2,1.45,1.57,2.21,2.56,3.2a144.12,144.12,0,0,0,28.07,21.69c-.78,2.62-2.53,4.28-3.51,6.7,29,18.51,67.67,31.47,114.55,31.91,47.22.44,85.64-14,115.18-31.59-.76-2.76-2.76-4.26-3.51-7,11.48-6.92,22.92-15.57,30.94-24.89-3.53-.6-6,3.08-8.29,5.11a182.05,182.05,0,0,1-20.1,15.63c-1.11.72-2.92,2.67-4.47,1.6-.66-1.69,1.62-2.59,2.55-3.19,9-5.85,17.85-12.34,24.89-19.78-5.47-.27-10.8-.69-15.95-1.28V249c-3,1.62-5.29,4.41-8,6.7a139.71,139.71,0,0,1-18.18,12.76c-3.23,2-6.67,4.92-11.49,4.15,11-5.93,21.47-12.63,30.31-20.42,2.82-2.49,7.64-5.16,7.34-9.89-6.68,6.08-14.51,13.78-23.29,18.82V241.32c21.46-2.43,36.32-11.61,48.49-24.25a74.58,74.58,0,0,0,10.7-14.14c6.56-1.17,13.11-2.28,19.62-3.09C452.55,196.71,477.47,195.58,501.13,190.51ZM93.05,166.92v-1a2.73,2.73,0,0,0,0-.95v-3.3a5.32,5.32,0,0,0,0-1.44v-1.57a1,1,0,0,1,.33-.61v-1.19a1.69,1.69,0,0,0,0-.72c0-.35,0-.67.31-.73v-.52h0V154a1.36,1.36,0,0,0,0-.58c0-.42,0-.84.31-.92v-.15c0-.2.06-.38.33-.32v-1a1.63,1.63,0,0,1,.33-1v-.19c.17-1,.37-1.9.57-2.82a43.79,43.79,0,0,0,1.41-4.9c0-.2,0-.39.33-.33v-.33c.07-.26,0-.65.33-.66,0-.39-.06-.94.33-1,0-.39-.06-.94.33-1a34.54,34.54,0,0,1,4-8.24c-.06-.38.07-.59.33-.66a11.65,11.65,0,0,1,2.3-3.63.92.92,0,0,1,.66-1,16.09,16.09,0,0,1,2-3c0-.2,0-.39.33-.33.15-.3.29-.59.66-.66h.33c0-.39-.06-.94.33-1,.13-.64,1.28-.26,1-1.32a18.41,18.41,0,0,1,3.3-3.3c0-1,.75-1.22,1.31-1.65.27-.06.33-.33.66-.33h.33c0-.2,0-.39.33-.33.07-.37.37-.51.66-.65.29-.49.5-1,1.32-1h.33c.78-1.86,2.65-2.63,4.29-3.63.23-.65.88-.88,1.65-1,.11-.43.58-.52.66-1H125c2.18-1,3.84-2.53,6.26-3.3.9-.86,2.34-1.17,3.63-1.65,0-.38.6-.27,1-.32a32.48,32.48,0,0,1,9.23-3c.06-.49.79-.3,1.32-.33a2.8,2.8,0,0,1,2-.33c.06-.39.53-.36,1-.33.06-.49.8-.3,1.32-.33h2.31c-.05-.72,1.17-.15,1.65-.33h.66c.06-.49.8-.3,1.32-.33h5.93V81.84a6.41,6.41,0,0,1-.34-1.7c0-1.56.14-3.06.32-4.49,0,0,0-.05,0-.07,6-1,14.4.33,20.44-.66v-.19c.32,0,.26-.41.33-.66v-.33c-.15,0-.26-.27-.33-.56v-.24a3.31,3.31,0,0,0,0-1.12c.06-.38.18-.67.36-.72v-.33a1,1,0,0,0,0-.36c0-.34-.07-.78-.08-1.14s.11-.46.37-.48V67.66a1.37,1.37,0,0,0,0-.58c0-.42,0-.85.31-.93v-.79a3,3,0,0,0,0-.43v-.21c0-.33,0-.62.31-.68.08-.26,0-.65.33-.66.07-.46.14-.92.22-1.37,0-.3.1-.6.16-.9,0-.14,0-.28.08-.42.15-.75.31-1.49.49-2.22A34.31,34.31,0,0,1,188,51.84v-.66c1.06-1.91,1.64-4.29,3-5.94a11.88,11.88,0,0,1,2.63-4.61c-.24-.9.66-.66.66-1.32A18.51,18.51,0,0,1,195.92,37h.33v-.9l.76-1a6.67,6.67,0,0,1,1.22-1v-.33a4.66,4.66,0,0,1,1.65-1.65c.1-.68.89-.65,1-1.32h-.6c.28-.64,1-.8,1.26-1.51a14.93,14.93,0,0,1,3-3c.67-.1.64-.89,1.31-1s.65-.89,1.32-1c.71-.51,1.23-1.19,2-1.65,7.75-5.88,16.49-10.76,28-12.85.07-.26.27-.39.66-.33.06-.49.79-.31,1.31-.33h.66c.06-.49.8-.31,1.32-.33h1c-.05-.72,1.17-.15,1.65-.33h1.32c.06-.49.8-.31,1.32-.33h2.3a5.78,5.78,0,0,1,4.29,0h2.31c.49,0,1.22-.12,1.32.33h1.65c.49,0,1.21-.12,1.32.33,1.72.26,3.62.33,4.94,1,12.25,2.15,21.33,7.47,29.35,13.84.28-.06.31.13.33.33.43.12.51.58,1,.66s.51.58,1,.66a4.66,4.66,0,0,1,1.65,1.65,6.67,6.67,0,0,1,2,2,3.61,3.61,0,0,1,1.45,1.5h-.13c-.09.53.31.56.33,1s.58.52.66,1c.28-.06.31.13.33.33s.27.39.33.66a6.15,6.15,0,0,1,2.3,3,.91.91,0,0,1,.67,1c.58.08.74.57.65,1.32.3.15.59.29.66.66a3,3,0,0,1,1.32,2c.2,0,.39.05.33.33a2.31,2.31,0,0,1,.66,1c0,.42.42.45.33,1,.26.07.38.27.33.66.39.49.95.8,1,1.65a13,13,0,0,1,2,4.28,2.69,2.69,0,0,1,.66,2c.57.3.73,1,.66,2,.38.05.27.6.33,1H315c.83,3.56,1.57,7.22,2.64,10.55V68c.38,0,.35.52.32,1a.43.43,0,0,1,.33.32,2.43,2.43,0,0,0,0,.81v.23a3,3,0,0,0,0,1v1.32c.16,0,.27.15.33.38v1.22c-.06.23-.17.39-.33.38v.66h6.6c4.5.22,9.89-.44,13.84.33.29-.06.32.13.33.33a49.8,49.8,0,0,1,.37,5.76c0,1,0,2.14,0,3.28,0,3.06-.87,8.77,0,9.87v.54c1,1,4.28-.32,5.28.66h.66c.68.2,2.17-.41,2.31.33h1.32c.49.06,1.21-.12,1.32.33,1.49.37,3.42.31,4.61,1A50.22,50.22,0,0,1,368.36,102c.53.45,1.7.27,2,1a63.69,63.69,0,0,1,13.84,8.91c.29-.06.32.12.33.33.44.11.52.58,1,.66.67.09.65.89,1.32,1,.23.26.45.53.66.8h.29c.48.43.93.88,1.37,1.34a4.86,4.86,0,0,0,1.16,1.31l.15.18c.1.67.89.65,1,1.32s.89.65,1,1.32c.51.7,1.19,1.23,1.65,2h0v.14l.16.08a71.55,71.55,0,0,1,9.1,15.61.49.49,0,0,0,.18.42c.15.38.29.76.44,1.15a1.48,1.48,0,0,0,0,.21H404c.32.86.63,1.74.92,2.64h0c.27.91.5,1.87.8,2.76.46,1.71.86,3.49,1.17,5.34.26.07.39.28.33.66a.34.34,0,0,1,.12,0,11.06,11.06,0,0,1,.22,2.08v.66a.34.34,0,0,1,.32.24V155a2.49,2.49,0,0,0,0,.82v.33a1.19,1.19,0,0,1,.3.71,1.11,1.11,0,0,0,0,.46v.34h0c0,.15,0,.31,0,.46v1.32a.42.42,0,0,1,.32.32v1a3.13,3.13,0,0,0,0,.92c-40-.88-81.69,4.62-116.3,7.37,5.81,12.65,26.27,16.53,32,25.28-23.89-6.7-43.34-35.89-75.49-34-10.35.61-19.41,8.51-30.29,11-29.74,6.82-52.47-12.22-84.49-9.24-13.36,1.24-27,3-40.76,5A.41.41,0,0,1,93.05,166.92ZM339,216.25l0,.08c-6,1-14.38-.33-20.41.66v.19c-.32,0-.26.4-.33.66v.32c.15.05.26.27.33.56V219a3.31,3.31,0,0,0,0,1.12c-.06.38-.18.67-.36.72v.33a1,1,0,0,0,0,.36c0,.34.07.78.08,1.14s-.1.46-.37.48v1.13a1.37,1.37,0,0,0,0,.58c0,.41,0,.84-.32.92v.8a3,3,0,0,0,0,.43v.21c0,.32,0,.61-.32.67-.07.26,0,.65-.33.66-.06.46-.14.92-.21,1.37s-.11.6-.17.9c0,.14-.05.28-.07.42-.16.75-.32,1.48-.5,2.21a34.06,34.06,0,0,1-2.34,6.63v.65c-1.06,1.91-1.64,4.29-3,5.93a11.81,11.81,0,0,1-2.63,4.61c.24.9-.66.67-.66,1.32a18.22,18.22,0,0,1-1.65,2.31h-.32v.9l-.76,1a7.5,7.5,0,0,1-1.22,1v.33a4.55,4.55,0,0,1-1.65,1.64c-.09.68-.89.65-1,1.32h.6c-.28.64-1,.8-1.26,1.51a14.57,14.57,0,0,1-3,3c-.67.1-.64.89-1.32,1s-.64.89-1.31,1c-.7.51-1.23,1.19-2,1.64-7.74,5.88-16.47,10.76-28,12.85-.07.26-.27.38-.66.33-.06.49-.79.3-1.31.33h-.66c-.06.48-.8.3-1.32.33h-1c.06.71-1.17.15-1.64.32h-1.32c-.06.49-.8.31-1.32.34H253a5.88,5.88,0,0,1-4.29,0h-2.3c-.49-.06-1.21.11-1.32-.34h-1.64c-.5-.05-1.22.12-1.32-.32-1.72-.26-3.62-.34-4.94-1-12.23-2.15-21.3-7.46-29.31-13.83-.28.06-.31-.13-.33-.33-.43-.12-.51-.58-1-.66s-.52-.58-1-.66a4.71,4.71,0,0,1-1.65-1.64,6.53,6.53,0,0,1-2-2,3.56,3.56,0,0,1-1.45-1.5h.13c.09-.53-.31-.57-.33-1s-.58-.52-.66-1c-.28.06-.31-.12-.33-.32s-.27-.4-.33-.66a6.3,6.3,0,0,1-2.3-3,.88.88,0,0,1-.66-1c-.58-.08-.75-.57-.66-1.32-.29-.15-.59-.29-.66-.66a3.09,3.09,0,0,1-1.32-2c-.2,0-.39,0-.33-.33a2.35,2.35,0,0,1-.65-1c0-.42-.43-.46-.33-1-.26-.07-.39-.28-.33-.66-.39-.5-.95-.81-1-1.65a13.19,13.19,0,0,1-2-4.28,2.71,2.71,0,0,1-.66-2c-.57-.3-.72-1-.65-2-.39,0-.28-.6-.33-1h-.33c-.84-3.55-1.57-7.21-2.64-10.54v-2.3c-.38-.05-.35-.52-.32-1a.39.39,0,0,1-.33-.31,2.42,2.42,0,0,0,0-.81v-.23a3,3,0,0,0,0-.95v-1.32c-.16,0-.27-.15-.34-.38V217.7c.07-.24.18-.4.34-.38v-.66h-6.59c-4.5-.22-9.88.43-13.83-.33-.28.06-.31-.13-.33-.33a49.83,49.83,0,0,1-.36-5.75c0-1,0-2.14,0-3.28,0-.21,0-.44,0-.67,16.47-1.65,32.14-3.94,46-6.61-6.39-10.87-25.32-15.13-30.81-23,22.25,6.3,37.32,28,62.59,33,19,3.74,32.73-9,45.52-11.24,18-3.19,34.94,4.59,53.24,8.57v3a6.37,6.37,0,0,1,.35,1.7C339.24,213.33,339.14,214.83,339,216.25Z"></path><path class="cls-1" d="M459.67,167.68c-53.15-12.36-117-2.36-167.25,1.64,5.81,12.65,26.42,16.42,32.17,25.17-23.89-6.7-44.92-36-77.07-34.09-10.35.61-18.38,8.93-29.27,11.42-29.73,6.82-53.49-12.64-85.51-9.66-44,4.1-89.9,13.78-131.82,18.33,3.48,13.09,18.91,17,32.84,20.68,49.34,12.88,124.88,8.5,174.83-1.18-6.39-10.87-25-15.5-30.5-23.33,22.25,6.3,36.73,28.19,62,33.16,19,3.75,31.54-9.07,44.33-11.33,22.79-4,43.82,9.48,68.11,10.67,23.45,1.15,48.9-6.25,73.66-9.33,25.08-3.13,50.9-4.1,74.56-9.17C495.15,175.61,475.33,171.32,459.67,167.68Z"></path><path class="cls-2" d="M258.91,187a8,8,0,1,1-5.45-9.88A8,8,0,0,1,258.91,187Z"></path><path class="cls-2" d="M246.5,170.1a2.83,2.83,0,1,1-1.93-3.5A2.83,2.83,0,0,1,246.5,170.1Z"></path><path class="cls-2" d="M236,184.72a2.82,2.82,0,1,1-1.93-3.5A2.83,2.83,0,0,1,236,184.72Z"></path><path class="cls-2" d="M244,200.86a2.83,2.83,0,1,1-1.93-3.5A2.82,2.82,0,0,1,244,200.86Z"></path><path class="cls-2" d="M261.65,201.47a2.83,2.83,0,1,1-1.93-3.5A2.83,2.83,0,0,1,261.65,201.47Z"></path><path class="cls-2" d="M271.58,186.87a2.83,2.83,0,1,1-1.93-3.5A2.83,2.83,0,0,1,271.58,186.87Z"></path><path class="cls-2" d="M263.21,171a2.83,2.83,0,1,1-1.93-3.5A2.81,2.81,0,0,1,263.21,171Z"></path><path class="cls-2" d="M213.16,237.23V241c0,.38.1.58.31.58h2.16c1.21,0,1.81-.7,1.81-2.08h.84v3h-8.54v-.64q1.11,0,1.11-.81v-8.19c0-.53-.37-.81-1.11-.83v-.62h8.06v3H217c0-1.39-.62-2.08-1.86-2.08h-1.94v3.92h2.06q.61,0,.63-.84h.79V238h-.79c0-.51-.22-.77-.63-.77Z"></path><path class="cls-2" d="M225.08,237h-.86a2.58,2.58,0,0,0-.49-1.37,2.22,2.22,0,0,0-.92-.18c-.7.05-1.07.38-1.11,1,0,.48.59.93,1.77,1.36,1.37.45,2.09,1.15,2.14,2.12,0,1.71-1.06,2.57-3.19,2.57a4.12,4.12,0,0,1-3-.88V240h.89a6.74,6.74,0,0,0,.42,1.49,2.38,2.38,0,0,0,1.35.32,1.21,1.21,0,0,0,1.33-1.37,1.36,1.36,0,0,0-.5-1.08,3.67,3.67,0,0,0-1.33-.61c-1.47-.34-2.23-.94-2.27-1.8a1.85,1.85,0,0,1,.78-1.51,3.47,3.47,0,0,1,2.27-.72c1.42,0,2.32.35,2.72.92Z"></path><path class="cls-2" d="M229.48,235.73v5c0,.47.14.71.41.71s.45-.17.75-.52l.43.64a2.2,2.2,0,0,1-1.92,1q-2,0-2-1.65v-5.15H226V235a2.71,2.71,0,0,0,2.56-2.11h.88V235h1.45v.71Z"></path><path class="cls-2" d="M235.18,234.75c2,0,3.1.81,3.15,2.39v4.13c0,.21.1.31.29.31a.69.69,0,0,0,.48-.24l.23.49a2.07,2.07,0,0,1-1.54.69c-.91,0-1.47-.24-1.67-.71a2.75,2.75,0,0,1-2.19.71q-2.2-.2-2.22-2a2,2,0,0,1,1.92-2.26,4.28,4.28,0,0,0,2.39-.88v-1c-.07-.57-.22-.86-.45-.86s-.39.15-.45.44a1.87,1.87,0,0,1-.52.87,1.41,1.41,0,0,1-1,.35.82.82,0,0,1-.9-.94,1.22,1.22,0,0,1,.62-1A4.11,4.11,0,0,1,235.18,234.75Zm.8,3.47c-1.36.35-2,1-2,1.94s.47,1.45,1.25,1.45a1,1,0,0,0,.79-.38Z"></path><path class="cls-2" d="M240.33,242.16v-9.58c0-.44-.43-.67-1.17-.7v-.72a27.78,27.78,0,0,0,3.48-.24v4.64a2.78,2.78,0,0,1,2.28-.81q2.7,0,2.75,3.84t-3.28,3.93a3.07,3.07,0,0,1-2.19-.86,2.49,2.49,0,0,1-1.25.92Zm2.31-1.86c.17.85.56,1.29,1.17,1.33,1,0,1.49-1,1.49-3s-.54-3-1.54-3a1.21,1.21,0,0,0-1.12.9Z"></path><path class="cls-2" d="M249.47,232.58c0-.43-.44-.67-1.17-.72v-.7a27.78,27.78,0,0,0,3.48-.24v10.13c0,.54.22.81.67.81v.64h-3.58v-.62c.4,0,.6-.3.6-.83Z"></path><path class="cls-2" d="M254.59,236.42c0-.44-.43-.67-1.17-.7V235c.73,0,1.3,0,1.72-.05s1-.09,1.76-.19v6.27c0,.54.22.81.67.81v.64H254v-.62c.4,0,.6-.3.6-.83Zm2.23-4.44c0,.77-.45,1.15-1.34,1.15a1.41,1.41,0,0,1-.95-.35,1,1,0,0,1-.39-.8c0-.77.44-1.15,1.34-1.15S256.82,231.21,256.82,232Z"></path><path class="cls-2" d="M264.57,237h-.86a2.58,2.58,0,0,0-.49-1.37,2.22,2.22,0,0,0-.92-.18c-.7.05-1.07.38-1.11,1,0,.48.59.93,1.77,1.36,1.37.45,2.09,1.15,2.14,2.12,0,1.71-1.06,2.57-3.19,2.57a4.12,4.12,0,0,1-3-.88V240h.89a6.74,6.74,0,0,0,.42,1.49,2.38,2.38,0,0,0,1.35.32,1.21,1.21,0,0,0,1.33-1.37,1.36,1.36,0,0,0-.5-1.08,3.67,3.67,0,0,0-1.33-.61c-1.47-.34-2.23-.94-2.27-1.8a1.85,1.85,0,0,1,.78-1.51,3.47,3.47,0,0,1,2.27-.72c1.42,0,2.32.35,2.72.92Z"></path><path class="cls-2" d="M269.2,241.05c0,.54.2.81.58.81v.64h-3.47v-.62c.39,0,.58-.29.58-.83v-8.47c0-.43-.41-.67-1.15-.72v-.7a27.35,27.35,0,0,0,3.46-.24v5a3.28,3.28,0,0,1,2.4-1.17c1.47,0,2.23.85,2.26,2.55v3.75q0,.81.66.81v.64H271.1v-.64q.45,0,.45-.81v-3.67c0-1-.27-1.52-.81-1.52s-1,.35-1.54,1.06Z"></path><path class="cls-2" d="M279.14,242.52c-2.45-.07-3.69-1.39-3.74-4q.18-3.74,3.72-3.78a3.22,3.22,0,0,1,2.57,1.05,4,4,0,0,1,.87,2.73h-4.64c0,2,.55,3,1.58,3s1.67-.59,2.19-1.78l.6.34A3.1,3.1,0,0,1,279.14,242.52Zm1.08-4.72c-.05-1.51-.37-2.27-1-2.27s-1,.76-1.28,2.27Z"></path><path class="cls-2" d="M288.35,241.81c-.22.47-.83.71-1.85.71-2.05,0-3.08-1.31-3.12-3.93s1.06-3.84,3.07-3.84a2,2,0,0,1,1.9.89v-3.06c0-.44-.42-.67-1.17-.7v-.72a27.31,27.31,0,0,0,3.49-.24v10c.05.43.39.65,1,.69v.7c-.69,0-1.24,0-1.65,0s-.94.09-1.7.18Zm0-5c-.1-.76-.48-1.15-1.13-1.18-1,0-1.47,1-1.48,2.93s.59,3.11,1.68,3.11c.4,0,.72-.27.93-.81Z"></path><path class="cls-2" d="M235.19,253.73h-2v-.79a3.4,3.4,0,0,0,3-2.17h1.55v6.48c0,1,.69,1.53,2.06,1.55v.7h-6.68v-.7c1.38,0,2.07-.53,2.07-1.55Z"></path><path class="cls-2" d="M247.2,255.92a2.2,2.2,0,0,1-2.39,1.63q-2.9,0-2.9-3.52c0-2.41,1.33-3.62,3.89-3.62s3.92,1.39,4,4.17q-.09,4.17-4.22,6.95h-1.34A8.84,8.84,0,0,0,247.2,255.92Zm.21-1.39c0-2.2-.52-3.3-1.55-3.3s-1.62.91-1.67,2.73.55,2.63,1.61,2.63C246.53,256.59,247.06,255.9,247.41,254.53Z"></path><path class="cls-2" d="M254,253.73h-2v-.79a3.39,3.39,0,0,0,3-2.17h1.55v6.48c0,1,.69,1.53,2.06,1.55v.7h-6.68v-.7c1.38,0,2.07-.53,2.07-1.55Z"></path><path class="cls-2" d="M261.47,255.86l1.44-5.09h4.89v1.5H264l-.82,2.62a2.68,2.68,0,0,1,1.31-.36,4.22,4.22,0,0,1,3,1.17,3.32,3.32,0,0,1,1.08,2.46,3.52,3.52,0,0,1-1.22,2.59,4.56,4.56,0,0,1-3.27,1.13,3.17,3.17,0,0,1-2.84-1.66,3.71,3.71,0,0,1-.41-1.44,1.2,1.2,0,0,1,1.36-1.3c.67.07,1,.35,1.06.86a1.6,1.6,0,0,1-.25,1,1.26,1.26,0,0,0-.25.72,1.35,1.35,0,0,0,1.32,1.1,2,2,0,0,0,1.41-.79,3.48,3.48,0,0,0,.77-2.25,3.11,3.11,0,0,0-.69-2.06,1.84,1.84,0,0,0-1.46-.69,2.66,2.66,0,0,0-1.88,1.29Z"></path><path class="cls-2" d="M164,287.94a15.88,15.88,0,0,1,3.56,4.94,4.89,4.89,0,0,1-.2,4,4.61,4.61,0,0,1-3.38,2.53,8.81,8.81,0,0,1-5.64-1,8.06,8.06,0,0,1-4.9-7.15l1.86-.18a6.77,6.77,0,0,0,1.14,3.47,8.2,8.2,0,0,0,6.77,3,2.88,2.88,0,0,0,2.41-1.56q1.28-2.67-2.92-6.55a12.87,12.87,0,0,1-3.16-3.89,3.41,3.41,0,0,1,0-2.88,3.47,3.47,0,0,1,2.86-2,7.21,7.21,0,0,1,4.13.74,7.1,7.1,0,0,1,2.31,1.71,4.78,4.78,0,0,1,1.18,2.35l-1.73.73a4,4,0,0,0-2.63-3.21,5.55,5.55,0,0,0-2.66-.6,1.82,1.82,0,0,0-1.72,1,1.74,1.74,0,0,0-.16,1,2.41,2.41,0,0,0,.45,1,9.43,9.43,0,0,0,.72.9,12.71,12.71,0,0,0,.91.92C163.67,287.56,163.92,287.81,164,287.94Z"></path><path class="cls-2" d="M190,310.79l-2-.71-2-13.49-6.13-2.17-10,9.23-2-.7,15.72-14.46,3.32,1.16Zm-4.34-16.31-.52-3.43-1.19-.42L181.41,293Z"></path><path class="cls-2" d="M211.05,315.66l-1.8-.42,2.18-9.47-11.85-9.51-5,15.61-1.8-.42,5.8-18.34,13.29,10.63,1.54-6.7,1.81.42Z"></path><path class="cls-2" d="M243.14,319.19,241,319l-5.36-12.55-6.49-.55-7.4,11.46-2.1-.18,11.59-18,3.5.3Zm-8.31-14.69-1.37-3.19-1.25-.11-1.89,2.92Z"></path><path class="cls-2" d="M264.72,318.57l-1.85.06-.29-9.72-13.87-6.2-.85,16.36-1.86.06,1-19.21,15.55,6.91-.21-6.87,1.86-.06Z"></path><path class="cls-2" d="M284,299l-8.46,1.12,2.72,20.53-1.89.25-2.72-20.53-8.48,1.13-.25-1.87,18.83-2.49Z"></path><path class="cls-2" d="M301,295.94a9.31,9.31,0,1,1-7.17-1.24A9.18,9.18,0,0,1,301,295.94ZM302.44,308a7.61,7.61,0,1,0-12.93-8,7.61,7.61,0,1,0,12.93,8Z"></path><path class="cls-2" d="M327.58,304.32l-1.76.59-3.1-9.21-15.07-1.89,4,15.9-1.76.59-4.67-18.66,16.89,2.09-2.2-6.52,1.76-.59Z"></path><path class="cls-2" d="M331.3,302.67l-1.75.69-6.95-17.55,1.75-.69Z"></path><path class="cls-2" d="M341.33,280.64a9.32,9.32,0,1,1-7.28.19A9.15,9.15,0,0,1,341.33,280.64Zm3.81,11.56a7.61,7.61,0,1,0-14.25-5.36,7.61,7.61,0,1,0,14.25,5.36Z"></path><path class="cls-2" d="M183.1,103.92c3.39,1.28,5.78,2.58,7.14,3.9a6.54,6.54,0,0,1,2,4.9,6.16,6.16,0,0,1-2.61,5q-2.61,2.06-7.38,2.05A10.78,10.78,0,0,1,172.25,114l2.15-1.29a9.07,9.07,0,0,0,3.37,3.53,9.41,9.41,0,0,0,4.53,1,9.67,9.67,0,0,0,5.38-1.32,3.89,3.89,0,0,0,2-3.28q0-4-7.31-6.22a17,17,0,0,1-6.05-2.86,4.56,4.56,0,0,1-1.62-3.49A4.62,4.62,0,0,1,177,96a10.3,10.3,0,0,1,9.18-.78A6.32,6.32,0,0,1,189,97.4l-1.65,1.89q-1.43-2.36-5-2.35a7.42,7.42,0,0,0-3.56.81,2.45,2.45,0,0,0-1.5,2.2,2.28,2.28,0,0,0,.38,1.27,3,3,0,0,0,1.14,1,13.43,13.43,0,0,0,1.39.68c.42.18,1,.37,1.64.58S182.88,103.83,183.1,103.92Z"></path><path class="cls-2" d="M220.08,97H208.67v27.69h-2.55V97H194.68V94.49h25.4Z"></path><path class="cls-2" d="M224.71,119.73H222.2V94.49h2.51Z"></path><path class="cls-2" d="M251.87,119.73h-2.48v-13l-18.3-8.83-1.78,21.83h-2.48l2-25.64L249.39,104V94.76h2.48Z"></path><path class="cls-2" d="M264.83,103.88c3.4,1.28,5.78,2.59,7.15,3.91a6.52,6.52,0,0,1,2,4.89,6.16,6.16,0,0,1-2.61,5q-2.61,2.05-7.38,2A10.78,10.78,0,0,1,254,113.94l2.15-1.29a9,9,0,0,0,3.37,3.52,9.3,9.3,0,0,0,4.53,1,9.59,9.59,0,0,0,5.38-1.33,3.86,3.86,0,0,0,2-3.27q0-4-7.31-6.22-4.44-1.4-6.06-2.86a4.57,4.57,0,0,1-1.62-3.49,4.63,4.63,0,0,1,2.3-4,10.3,10.3,0,0,1,9.18-.78,6.25,6.25,0,0,1,2.78,2.15L269,99.25q-1.43-2.34-5-2.34a7.42,7.42,0,0,0-3.56.81,2.45,2.45,0,0,0-1.5,2.2,2.23,2.23,0,0,0,.38,1.27,3,3,0,0,0,1.14,1c.51.28,1,.5,1.39.68s1,.37,1.63.58S264.61,103.8,264.83,103.88Z"></path><path class="cls-2" d="M298,98.13a12.48,12.48,0,1,1-9-3.8A12.24,12.24,0,0,1,298,98.13Zm-1.77,16.17a10,10,0,1,0-7.19,3.08A9.79,9.79,0,0,0,296.21,114.3Z"></path><path class="cls-2" d="M328.78,119.73H326.3v-13L308,97.9l-1.78,21.83h-2.48l2.05-25.64L326.3,104V94.76h2.48Z"></path><path class="cls-2" d="M198.36,151h-2.79l-8.41-15.81h-8.53L170.22,151h-2.76l13.15-24.76h4.6Zm-12.5-18.27-2.14-4h-1.65l-2.15,4Z"></path><path class="cls-2" d="M202.9,150.94h-2.46V126.17h2.46Z"></path><path class="cls-2" d="M229.29,150.94H226l-18.5-20.35v20.35H205V126.17h16.23a4.13,4.13,0,0,1,0,8.25h-6.92Zm-6.91-19.48a1.66,1.66,0,0,0-1.17-2.82H209l3,3.31h9.16A1.59,1.59,0,0,0,222.38,131.46Z"></path><path class="cls-2" d="M253.37,132.15a5.75,5.75,0,0,1-1.74,4.17,5.6,5.6,0,0,1-4.17,1.76H233.83v12.86h-2.47V126.17h16.1a5.61,5.61,0,0,1,4.17,1.77A5.79,5.79,0,0,1,253.37,132.15Zm-3.51,2.43a3.29,3.29,0,0,0,1-2.43,3.41,3.41,0,0,0-1-2.45,3.24,3.24,0,0,0-2.42-1.06H233.83v7h13.63A3.3,3.3,0,0,0,249.86,134.58Z"></path><path class="cls-2" d="M276.61,129.74a12.23,12.23,0,1,1-8.8-3.73A12.07,12.07,0,0,1,276.61,129.74Zm-1.74,15.87a9.78,9.78,0,1,0-7.06,3A9.71,9.71,0,0,0,274.87,145.61Z"></path><path class="cls-2" d="M306.56,150.94h-3.31l-18.5-20.35v20.35h-2.5V126.17h16.23a4.13,4.13,0,0,1,0,8.25h-6.91Zm-6.91-19.48a1.63,1.63,0,0,0,0-2.33,1.58,1.58,0,0,0-1.17-.49H286.31l3,3.31h9.15A1.58,1.58,0,0,0,299.65,131.46Z"></path><path class="cls-2" d="M333.56,128.64H322.37V155.8h-2.5V128.64H308.64v-2.47h24.92Z"></path><path class="cls-2" d="M277.11,47c-.1-.31-2.17-.72-3.18-.45s-6.12,1.72-6.12,1.72l-8.18-8.61-1.88-.18.64.55,5.07,8.68.35,1-2.75.94a.63.63,0,0,0,0-.66c-.06-.15-.18-.41-.31-.46s-.31-.18-1.27.36c-1.29.71-1.44.82-1.44.82s-.18.08.07.75a1.35,1.35,0,0,0,.46.74,4.65,4.65,0,0,1-.82.45c-.75.32-1.61.62-1.61.62l-3.23-2.43-1.08.36a15.64,15.64,0,0,1,2,2.9l.08.18-.84.51.15.46,1-.11a14.27,14.27,0,0,1,.25,3.7l1.08-.37,1.07-3.9s.86-.29,1.65-.49a5.05,5.05,0,0,1,.93-.15,1.36,1.36,0,0,0,.09.87c.21.68.4.63.4.63s.19,0,1.64-.22c1.09-.17,1.16-.39,1.23-.5a.92.92,0,0,0,0-.56c-.12-.45-.42-.5-.42-.5l2.76-.94.39,1.1.92,9.91-.19.71,1.44-1.22,1.44-11.81s5.56-2,6.18-2.19C276,48.92,277.22,47.34,277.11,47Z"></path><path class="cls-2" d="M252.66,55.08c-.46.09-.72.15-1.15.27-1,.27-1.63.41-2.48.63s-1.26.33-1.83.42c-2.49-2.38-4.92-4.63-6.79-6.33S237,47,235.84,45.92q-3.1-3.3-3.51-5.75a6.31,6.31,0,0,1,2.21-5.7q5.33-5.53,14.75-7.07a31.68,31.68,0,0,1,3.29-.38,14.31,14.31,0,0,1,2.95.09,6.79,6.79,0,0,1,3.88,1.67,7,7,0,0,1,2.14,4.15,9.42,9.42,0,0,1,.14,1.62,2.82,2.82,0,0,0,.08,1c.06.16.13.15.2,0a2.16,2.16,0,0,0,.29-.78,7.91,7.91,0,0,0,.19-1.57,8.76,8.76,0,0,0-.11-1.47,7.49,7.49,0,0,0-1.95-3.92A7.59,7.59,0,0,0,256.8,26a21.57,21.57,0,0,0-6.29.24,32.55,32.55,0,0,0-16.9,7.74c-2.12,1.92-3,4-2.63,6.29q.51,3.1,4.1,6.5,3,3,5.54,5.4c1.66,1.63,3.2,3.11,4.6,4.45a72,72,0,0,0-9.77,3.15,45.52,45.52,0,0,0-7.65,3.94c-2.78,1.75-4,3.64-3.67,5.68s2,3.51,4.94,4a20.33,20.33,0,0,0,6.9-.08,26,26,0,0,0,5-1.35,27.39,27.39,0,0,0,4.57-2.27q5.08-3.18,4.25-8.28a9.65,9.65,0,0,0-2.23-4.66c.36-.13,1.2-.42,2.93-.86.85-.22,1.67-.47,2.13-.61l.26-.09,0-.12Zm-4.59,6.12q.62,3.73-3.41,6.68a22.84,22.84,0,0,1-4.32,2.4,22.06,22.06,0,0,1-4.88,1.38,26.35,26.35,0,0,1-3,.33,17.18,17.18,0,0,1-2.95-.07,4.86,4.86,0,0,1-2.2-.75,3.11,3.11,0,0,1-1.63-2c-.25-1.48.91-3.16,3.48-5a36.42,36.42,0,0,1,9.09-4.73c.89-.35,1.95-.73,3.18-1.15s2.63-.87,4.21-1.33A7,7,0,0,1,248.07,61.2Z"></path></g></g></svg> 